# xmcd
#
# Track frame offsets: 
#        150
#        14981
#        26854
#        42285
#        55510
#        67960
#        79307
#        91097
#        101777
#        115730
#        127106
#        140090
#        151793
#        163404
#
# Disc length: 2348 seconds
#
# Revision: 0
# Processed by: cddbd v1.5.2PL0 Copyright (c) Steve Scherf et al.
# Submitted via: ExactAudioCopy v1.0b3
#
DISCID=c2092a0e
DTITLE=Andy Rasmussen - 'Action' Andy Sings ... Haunted Honky Tonk
DYEAR=2007
DGENRE=Country
TTITLE0=Haunted Honky-Tonk
TTITLE1=Barroom Romance
TTITLE2=Lonesome And Then Some
TTITLE3=Thunderbird Blues
TTITLE4=That One Song
TTITLE5=My Baby's Gone
TTITLE6=One Tortured Soul
TTITLE7=X In Texas
TTITLE8=Teenage Gang
TTITLE9=Lonesome Row
TTITLE10=Honky-Tonk Hustler
TTITLE11=Women Like A Chase
TTITLE12=Boy Crazy Gal
TTITLE13=Starry Skies
EXTD=
EXTT0=
EXTT1=
EXTT2=
EXTT3=
EXTT4=
EXTT5=
EXTT6=
EXTT7=
EXTT8=
EXTT9=
EXTT10=
EXTT11=
EXTT12=
EXTT13=
PLAYORDER=
